<svg xmlns="http://www.w3.org/2000/svg" viewBox="0 0 72.1 107.37"><defs><style>.cls-1{fill:#fff;}.cls-2{fill:#b0e2f9;}.cls-3{fill:#90c74f;}.cls-4{fill:#6ea737;}</style></defs><title>Asset 1</title><g id="Layer_2" data-name="Layer 2"><g id="OBJECTS"><path class="cls-1" d="M35,55.84c0-18.58-.43-37.25.11-55.84C17.77,22.79,1.21,45.42.06,67.47c-1,19.08,10.23,39.23,34.43,39.9C34.15,90.23,35,72.91,35,55.84Z"/><path class="cls-2" d="M34.57,83.54C20.86,83.44,8.71,74.22,1,60a51.93,51.93,0,0,0-1,7.48c-1,19.08,10.23,39.23,34.43,39.9C34.33,99.45,34.42,91.49,34.57,83.54Z"/><path class="cls-3" d="M71.56,62.74c.09.59.16,1.18.23,1.77C71.72,63.92,71.65,63.33,71.56,62.74Z"/><path class="cls-3" d="M70.51,57.45c.2.78.37,1.56.53,2.34C67,40.19,52.35,20.17,37.05,0c.26,8.66.31,17.33.28,26a22.67,22.67,0,0,0,5.45-5c.47-.61,1.53,0,1.06.63A21.34,21.34,0,0,1,37.33,28q0,8.06-.1,16.1c3.5-2.39,6.79-4.94,9.11-8.67a.55.55,0,0,1,.95.55A23.7,23.7,0,0,1,42,42.84a29.07,29.07,0,0,1-4.74,3.69q0,5.8-.05,11.61c0,.48,0,1,0,1.44A102.18,102.18,0,0,0,51.76,48.81c.8-.74,2,.44,1.2,1.19a78.15,78.15,0,0,1-9.57,8,43.09,43.09,0,0,1-6.21,4c0,5.37.13,10.75.24,16.15,7.65-2.92,15.8-6,21-12.45.65-.81,2,.27,1.43,1.1a31.46,31.46,0,0,1-11.39,9.26c-3.39,1.71-7.14,4-11,4.93,0,.83,0,1.66.05,2.5C51.26,82.54,63.27,72.44,70.51,57.45Z"/><path class="cls-3" d="M37.68,95.29v0h0Z"/><path class="cls-3" d="M37.69,101.32q0,3-.06,6.05Q37.67,104.35,37.69,101.32Z"/><path class="cls-3" d="M37.64,91.13c0-.61,0-1.22,0-1.83C37.63,89.91,37.63,90.52,37.64,91.13Z"/><path class="cls-3" d="M71.86,65.14c.08.77.14,1.55.18,2.33C72,66.69,71.94,65.91,71.86,65.14Z"/><path class="cls-3" d="M37.69,98.19v0Z"/><path class="cls-3" d="M71.12,60.23c.13.63.24,1.26.34,1.89C71.36,61.49,71.25,60.86,71.12,60.23Z"/><path class="cls-4" d="M72,67.47c0-.78-.1-1.56-.18-2.33,0-.21,0-.42-.07-.63-.07-.59-.14-1.18-.23-1.77,0-.21-.07-.41-.1-.62-.1-.63-.21-1.26-.34-1.89,0-.15-.05-.3-.08-.44-.16-.78-.33-1.56-.53-2.34-7.24,15-19.25,25.09-33,26h0c0,1.94.07,3.88.1,5.82,0,.61,0,1.22,0,1.83,0,1.39,0,2.78,0,4.16v0c4.16-1.7,8.76-2.4,12.75-4.56a48.17,48.17,0,0,0,12-9.14c.63-.64,1.53.3,1,1C57.08,89.92,47.71,97,37.69,98.19v.24c0,1,0,1.93,0,2.89q0,3-.06,6.05C61.82,106.69,73,86.55,72,67.47Z"/><path class="cls-2" d="M26,17.22c-2.46,2.15-4.73,4.91-5.6,7.93C20,26.68,18.68,31,21.61,31a3.69,3.69,0,0,0,1.79-.61,20.22,20.22,0,0,0,8.89-11,6.15,6.15,0,0,0,.39-2.5,2.52,2.52,0,0,0-1.33-2c-1.12-.49-2.39.17-3.38.88C27.33,16.15,26.67,16.67,26,17.22Z"/><path class="cls-2" d="M15.2,33.78a3.06,3.06,0,0,0,2.29,5.42c2.39-.29,4.23-3.34,2.65-5.32C18.88,32.31,16.91,32.35,15.2,33.78Z"/></g></g></svg>